<?xml version="1.0" encoding="UTF-8"?> <svg xmlns="http://www.w3.org/2000/svg" width="312" height="64" viewBox="0 0 312 64" fill="none"> <g clip-path="url(#clip0)"> <path d="M78.8001 8.69995C63.8001 8.69995 51.6001 20.9999 51.6001 36.0999C51.6001 51.1999 63.8001 63.5 78.8001 63.5C93.8001 63.5 106 51.1999 106 36.0999C106 20.9999 93.8001 8.69995 78.8001 8.69995ZM78.8001 63.2C65.8001 63.2 55.2001 50.9 55.2001 36.2C55.2001 21.5 65.8001 9.19995 78.8001 9.19995C91.8001 9.19995 102.4 21.5 102.4 36.2C102.4 50.8 91.8001 63.2 78.8001 63.2Z" fill="white"></path> <path d="M148.2 8.69995H147.8H131H127.3H111.2H110.8L107.3 17.8H107.7L108.1 16.7C109.9 12.1 114.2 9.09995 119.1 9.09995H127.2V58.2C127.2 61.4 125.8 63.2 121.7 63.2V63.5999H127.2H127.7H130.4H130.9H136.4V63.2C132.3 63.2 130.9 61.4 130.9 58.2V9.09995H139.7C144.6 9.09995 149 12.1 150.7 16.7L151.1 17.8H151.5L148.2 8.69995Z" fill="white"></path> <path d="M43.6 8.8999H38.1V9.2999C42.2 9.2999 43.6 11.0999 43.6 14.2999V57.2999L9.7 8.8999H8.3H5.3H0V9.2999H1.8C4.1 9.2999 6.3 10.3999 7.7 12.3999L8.1 12.9999V58.2999C8.1 61.4999 6.7 63.2999 2.6 63.2999V63.6999H8.1H8.5H14V63.2999C9.9 63.2999 8.5 61.4999 8.5 58.2999V13.5999L43.6 63.6999H44V14.2999C44 11.0999 45.4 9.2999 49.5 9.2999V8.8999H44H43.6Z" fill="white"></path> <path d="M196.7 9.0001C201.6 9.0001 206 12.0001 207.7 16.6001L208.1 17.7001H208.5L205 8.6001H182H173V9.0001C177 9.0001 178.5 10.8001 178.5 14.0001V27.3001C178.5 31.6001 181.5 35.2001 185.5 36.0001C181.5 36.8001 178.5 40.4001 178.5 44.7001V58.0001C178.5 61.2001 177.1 63.0001 173 63.0001V63.4001H180.6H205.1L208.6 54.3001H208.2L207.8 55.4001C206 60.0001 201.7 63.0001 196.8 63.0001H182.2V42.4001C182.2 39.0001 185 36.2001 188.4 36.2001H190.4H200.9V35.8001H190.4H188.4C185 35.8001 182.2 33.0001 182.2 29.6001V9.0001H196.7Z" fill="white"></path> <path d="M160.1 9.1H160.5L167.2 0H163.6L160.1 9.1Z" fill="white"></path> <path d="M311 63.1001C308.3 63.1001 305.8 61.5001 304.7 59.1001L285.4 8.7001H275.7V9.1001H277.5C277.7 9.1001 277.8 9.1001 278 9.1001C280.4 9.3001 282.5 10.8001 283.6 12.8001L266 59.4001C265.1 61.6001 262.9 63.1001 260.5 63.1001H259.3C257.4 63.1001 255.8 62.0001 254.5 60.6001C252.9 58.8001 251.8 56.7001 250.7 54.6001C249.4 52.1001 248.1 49.7001 246.4 47.4001C244.7 45.0001 242.7 42.8001 240.2 41.2001C238.1 39.9001 235.8 39.0001 233.4 38.6001H238.8C247.1 38.6001 253.8 31.9001 253.8 23.6001C253.8 15.3001 247.1 8.6001 238.8 8.6001H227.3H218.1V9.0001C222.1 9.0001 223.6 10.8001 223.6 14.0001V25.4001V26.0001V58.0001C223.6 61.2001 222.2 63.0001 218.1 63.0001V63.4001H223.6H226.8H227.3H232.8V63.0001C228.7 63.0001 227.3 61.2001 227.3 58.0001V38.6001H229.4C229.5 38.6001 229.6 38.6001 229.8 38.6001C232.3 38.7001 234.7 39.6001 236.7 41.1001C238.8 42.7001 240.5 44.9001 242 47.1001C243.6 49.5001 244.9 51.9001 246.5 54.3001C247.9 56.5001 249.5 58.7001 251.5 60.5001C253.4 62.2001 255.7 63.3001 258.3 63.5001C258.6 63.5001 259 63.5001 259.3 63.5001H264.4H264.8H270.4V63.1001H268.2C266.6 63.1001 265.6 61.5001 266.2 60.1001L275.3 36.2001H292.5L298.8 53.2001L301.6 60.1001C302.2 61.5001 301.1 63.1001 299.6 63.1001H297.4V63.5001H300.6H303.1H306.7H308.8H312V63.1001H311V63.1001ZM227.4 38.2001V9.0001H238.9C245.1 9.0001 250.2 15.5001 250.2 23.6001C250.2 31.7001 245.2 38.2001 238.9 38.2001H227.4ZM275.3 35.8001L283.8 13.3001C283.8 13.4001 283.9 13.5001 283.9 13.5001L292.2 35.7001L275.3 35.8001Z" fill="white"></path> </g> <defs> <clipPath id="clip0"> <rect width="311.8" height="63.7" fill="white"></rect> </clipPath> </defs> </svg> 